<?xml version="1.0" encoding="UTF-8"?><svg id="Layer_1" xmlns="http://www.w3.org/2000/svg" viewBox="0 0 509.25 174.44"><g><path d="M139.35,107.3v-33.39h7.61l.74,4.51c1.08-1.62,2.5-2.91,4.28-3.87,1.77-.97,3.83-1.45,6.16-1.45,5.16,0,8.82,2,10.97,5.99,1.21-1.84,2.84-3.3,4.88-4.38,2.04-1.08,4.27-1.62,6.7-1.62,4.35,0,7.7,1.3,10.03,3.91,2.33,2.6,3.5,6.42,3.5,11.45v18.85h-8.62v-18.04c0-2.87-.55-5.07-1.65-6.6-1.1-1.53-2.79-2.29-5.08-2.29s-4.21,.85-5.62,2.56c-1.41,1.71-2.12,4.09-2.12,7.14v17.24h-8.62v-18.04c0-2.87-.56-5.07-1.68-6.6-1.12-1.53-2.85-2.29-5.18-2.29s-4.14,.85-5.55,2.56c-1.41,1.71-2.12,4.09-2.12,7.14v17.24h-8.62Z" fill="#414142"/><path d="M218.66,108.11c-3.37,0-6.35-.72-8.95-2.16-2.6-1.44-4.65-3.45-6.13-6.06-1.48-2.6-2.22-5.61-2.22-9.02s.73-6.53,2.19-9.22c1.46-2.69,3.48-4.79,6.06-6.29,2.58-1.5,5.62-2.26,9.12-2.26,3.28,0,6.17,.72,8.69,2.16,2.51,1.44,4.48,3.4,5.89,5.89,1.41,2.49,2.12,5.26,2.12,8.31,0,.49-.01,1.01-.03,1.55-.02,.54-.06,1.1-.1,1.68h-25.38c.18,2.6,1.09,4.65,2.73,6.13,1.64,1.48,3.62,2.22,5.96,2.22,1.75,0,3.22-.39,4.41-1.18,1.19-.78,2.08-1.81,2.66-3.06h8.75c-.63,2.11-1.67,4.03-3.13,5.76-1.46,1.73-3.25,3.09-5.39,4.07-2.13,.99-4.54,1.48-7.24,1.48Zm.07-28.01c-2.11,0-3.97,.6-5.59,1.79-1.62,1.19-2.65,3-3.1,5.42h16.63c-.13-2.2-.94-3.95-2.42-5.25-1.48-1.3-3.32-1.95-5.52-1.95Z" fill="#414142"/><path d="M242.69,107.3v-33.39h7.68l.81,6.26c1.21-2.15,2.86-3.87,4.95-5.15s4.54-1.92,7.37-1.92v9.09h-2.42c-1.89,0-3.57,.29-5.05,.88-1.48,.58-2.64,1.59-3.47,3.03s-1.25,3.43-1.25,5.99v15.22h-8.62Z" fill="#414142"/><path d="M274,68.73c-1.57,0-2.86-.47-3.87-1.41-1.01-.94-1.51-2.13-1.51-3.57s.5-2.61,1.51-3.53c1.01-.92,2.3-1.38,3.87-1.38s2.86,.46,3.87,1.38c1.01,.92,1.51,2.1,1.51,3.53s-.51,2.63-1.51,3.57c-1.01,.94-2.3,1.41-3.87,1.41Zm-4.31,38.58v-33.39h8.62v33.39h-8.62Z" fill="#414142"/><path d="M302.67,108.11c-3.14,0-5.95-.76-8.42-2.29s-4.42-3.61-5.86-6.26c-1.44-2.65-2.16-5.66-2.16-9.02s.72-6.36,2.16-8.99c1.44-2.63,3.39-4.69,5.86-6.19,2.47-1.5,5.27-2.26,8.42-2.26,2.51,0,4.71,.47,6.6,1.42,1.89,.94,3.41,2.27,4.58,3.97v-19.66h8.62v48.47h-7.68l-.94-4.78c-1.08,1.48-2.5,2.78-4.28,3.91-1.77,1.12-4.07,1.68-6.9,1.68Zm1.82-7.54c2.78,0,5.06-.93,6.83-2.79,1.77-1.86,2.66-4.25,2.66-7.17s-.89-5.31-2.66-7.17c-1.77-1.86-4.05-2.79-6.83-2.79s-5.01,.92-6.8,2.76c-1.8,1.84-2.69,4.22-2.69,7.14s.9,5.32,2.69,7.2c1.79,1.88,4.06,2.83,6.8,2.83Z" fill="#414142"/><path d="M335.87,68.73c-1.57,0-2.86-.47-3.87-1.41-1.01-.94-1.51-2.13-1.51-3.57s.5-2.61,1.51-3.53c1.01-.92,2.3-1.38,3.87-1.38s2.86,.46,3.87,1.38c1.01,.92,1.51,2.1,1.51,3.53s-.51,2.63-1.51,3.57c-1.01,.94-2.3,1.41-3.87,1.41Zm-4.31,38.58v-33.39h8.62v33.39h-8.62Z" fill="#414142"/><path d="M360.71,108.11c-2.87,0-5.23-.46-7.07-1.38-1.84-.92-3.21-2.14-4.11-3.67-.9-1.52-1.35-3.21-1.35-5.05,0-3.1,1.21-5.61,3.63-7.54,2.42-1.93,6.06-2.89,10.91-2.89h8.48v-.81c0-2.29-.65-3.97-1.95-5.05-1.3-1.08-2.92-1.62-4.85-1.62-1.75,0-3.28,.42-4.58,1.25-1.3,.83-2.11,2.05-2.42,3.67h-8.42c.22-2.42,1.04-4.53,2.46-6.33,1.41-1.79,3.24-3.18,5.49-4.14,2.24-.97,4.76-1.45,7.54-1.45,4.76,0,8.51,1.19,11.24,3.57,2.74,2.38,4.11,5.74,4.11,10.1v20.53h-7.34l-.81-5.39c-.99,1.8-2.37,3.28-4.14,4.44-1.77,1.17-4.05,1.75-6.83,1.75Zm1.95-6.73c2.47,0,4.39-.81,5.76-2.42,1.37-1.62,2.23-3.61,2.59-5.99h-7.34c-2.29,0-3.93,.42-4.91,1.25s-1.48,1.85-1.48,3.06c0,1.3,.49,2.31,1.48,3.03,.99,.72,2.29,1.08,3.91,1.08Z" fill="#414142"/><path d="M388.04,107.3v-33.39h7.61l.67,5.66c1.03-1.97,2.52-3.55,4.48-4.71,1.95-1.17,4.25-1.75,6.9-1.75,4.13,0,7.34,1.3,9.63,3.91,2.29,2.6,3.43,6.42,3.43,11.45v18.85h-8.62v-18.04c0-2.87-.58-5.07-1.75-6.6-1.17-1.53-2.99-2.29-5.45-2.29s-4.41,.85-5.96,2.56c-1.55,1.71-2.32,4.09-2.32,7.14v17.24h-8.62Z" fill="#414142"/><path d="M440.48,108.11c-2.87,0-5.23-.46-7.07-1.38-1.84-.92-3.21-2.14-4.11-3.67-.9-1.52-1.35-3.21-1.35-5.05,0-3.1,1.21-5.61,3.63-7.54,2.42-1.93,6.06-2.89,10.91-2.89h8.48v-.81c0-2.29-.65-3.97-1.95-5.05-1.3-1.08-2.92-1.62-4.85-1.62-1.75,0-3.28,.42-4.58,1.25-1.3,.83-2.11,2.05-2.42,3.67h-8.42c.22-2.42,1.04-4.53,2.46-6.33,1.41-1.79,3.24-3.18,5.49-4.14,2.24-.97,4.76-1.45,7.54-1.45,4.76,0,8.51,1.19,11.24,3.57,2.74,2.38,4.11,5.74,4.11,10.1v20.53h-7.34l-.81-5.39c-.99,1.8-2.37,3.28-4.14,4.44-1.77,1.17-4.05,1.75-6.83,1.75Zm1.95-6.73c2.47,0,4.39-.81,5.76-2.42,1.37-1.62,2.23-3.61,2.59-5.99h-7.34c-2.29,0-3.93,.42-4.91,1.25s-1.48,1.85-1.48,3.06c0,1.3,.49,2.31,1.48,3.03,.99,.72,2.29,1.08,3.91,1.08Z" fill="#414142"/></g><path d="M110.44,54.25c-3.71-3.53-7.08-4.14-11.68-4.14h-7.02v6.16c0,2.93,2.37,5.3,5.3,5.3,0,0,2.01,.03,2.34,.08,.11,.02,1.23-.07,2.48,1.26,1.25,1.33,1.12,2.08,1.12,3.58,0,.03,.03,.98,.03,.98,0,2.93,2.37,5.3,5.3,5.3h6.16v-7.02c0-4.6-.62-7.86-4.05-11.51Z" fill="#ed8b22"/><path d="M97.07,86.45v12.5c0,2.91-2.36,5.27-5.27,5.27h-25.23c-2.91,0-5.27-2.36-5.27-5.27l.02-7.85h.03s-.01-4.64-.01-4.64v-4.64s-.01,0-.01,0l-.02-7.85c0-2.91,2.36-5.27,5.27-5.27h12.75c3.23,0,5.81-2.7,5.67-5.92-.08-1.7-.15-3.4-.22-5.1h-26.59c-5.07,0-9.19,4.11-9.19,9.19v39.19c0,5.07,4.11,9.19,9.19,9.19h41.16c5.06,0,9.2-4.14,9.2-9.2v-25.71c-2,.12-4,.24-6,.34-3.08,.16-5.49,2.69-5.49,5.77Z" fill="#414142"/></svg>